# xmcd
#
# Track frame offsets: 
#        150
#        16810
#        34149
#        47494
#        67599
#        81150
#        103621
#        133408
#        154318
#        179738
#        215171
#
# Disc length: 3064 seconds
#
# Revision: 2
# Processed by: cddbd v1.5.2PL0 Copyright (c) Steve Scherf et al.
# Submitted via: ExactAudioCopy v0.99pb4
#
DISCID=970bf60b
DTITLE=Dave Gross - Crawling The Walls
DYEAR=2008
DGENRE=Blues
TTITLE0=It's My Life, Baby
TTITLE1=Rock In My Shoe
TTITLE2=Cubano Jump
TTITLE3=Crawling The Walls
TTITLE4=Inspiration Blues
TTITLE5=You're Not The One
TTITLE6=Baby Won't You Please Come Home?
TTITLE7=Don't Take Too Long
TTITLE8=Find Yourself Another Man
TTITLE9=It Was Born In The 20S
TTITLE10=A Little Love, A Little Kiss
EXTD=
EXTT0=
EXTT1=
EXTT2=
EXTT3=
EXTT4=
EXTT5=
EXTT6=
EXTT7=
EXTT8=
EXTT9=
EXTT10=
PLAYORDER=
